<svg version="1.1" xmlns="http://www.w3.org/2000/svg" xmlns:xlink="http://www.w3.org/1999/xlink" width="48" height="48"><defs><linearGradient x1="8.01608" y1="12.35187" x2="40.1903" y2="42.85818" gradientUnits="userSpaceOnUse" id="color-1"><stop offset="0" stop-color="#000000" stop-opacity="0.2"></stop><stop offset="1" stop-color="#000000" stop-opacity="0"></stop></linearGradient><linearGradient x1="33.625" y1="14.375" x2="43" y2="23.75" gradientUnits="userSpaceOnUse" id="color-2"><stop offset="0" stop-color="#000000" stop-opacity="0.2"></stop><stop offset="1" stop-color="#000000" stop-opacity="0"></stop></linearGradient><filter id="dropshadow-base"><feColorMatrix type="matrix" values="0 0 0 0 0  0 0 0 0 0  0 0 0 0 0  0 0 0 .8 0"></feColorMatrix> <feOffset dx="0" dy="1"></feOffset> <feGaussianBlur stdDeviation="1"></feGaussianBlur> <feComposite in="SourceGraphic"></feComposite></filter><filter id="dropshadow-banner" x="-10%" y="-10%" width="120%" height="130%"><feColorMatrix type="matrix" values="0 0 0 0 0  0 0 0 0 0  0 0 0 0 0  0 0 0 .4 0"></feColorMatrix> <feOffset dx="0" dy="1"></feOffset> <feGaussianBlur stdDeviation="0.5"></feGaussianBlur> <feComposite in="SourceGraphic"></feComposite></filter></defs><g fill="none" fill-rule="nonzero" stroke="none" stroke-width="none" stroke-linecap="butt" stroke-linejoin="miter" stroke-miterlimit="10" stroke-dasharray="" stroke-dashoffset="0" font-family="none" font-weight="none" font-size="none" text-anchor="none" style="mix-blend-mode: normal"><path d="M7,43c-1.10457,0 -2,-0.89543 -2,-2v-34c0,-1.10457 0.89543,-2 2,-2l26,0l10,10v26c0,1.10457 -0.89543,2 -2,2z" id="base 1 5 1 1 1 1 1 2" fill="#03a9f4" stroke-width="1"></path><path d="M27.61352,13.93887l1.06066,1.06066c0.34789,0.34789 0.70748,0.7541 0.9274,1.06374c0.16619,0.22982 0.58167,0.6999 0.92592,1.05508c0.34426,0.35518 0.67664,0.75214 0.74786,0.88793c0.23741,0.53276 0.68851,2.48624 0.96153,4.22034c0.05935,0.34472 0.16619,0.90883 0.23741,1.25357c0.07122,0.34472 0.17806,1.00285 0.23741,1.46249c0.05935,0.45964 0.18993,1.30579 0.29678,1.86989c0.09497,0.57454 0.17806,1.53561 0.17806,2.15195c0,0.82526 0.05935,1.264 0.22554,1.70275c0.21367,0.53276 1.34141,2.434 1.9943,3.34284c0.01407,0.01945 0.02771,0.03861 0.04088,0.05738c0.09749,-0.02004 0.17546,-0.01376 0.21384,0.02463l1.06066,1.06066c0.00824,0.00824 0.01465,0.01795 0.01904,0.0292c0.73904,0.66393 1.6487,1.44269 1.96147,1.65352l0.42734,0.28204l1.06066,1.06066v4.67998h-31.11356l-1.06066,-1.06066l0.33239,-0.50143c0.17806,-0.27161 0.49858,-0.68946 0.70038,-0.92972c0.72412,-0.83571 2.48101,-3.1757 2.84901,-3.78159c0.2018,-0.33428 0.58167,-0.88793 0.85471,-1.22222c0.27304,-0.34472 0.68851,-0.95061 0.92592,-1.34758c0.39174,-0.65811 0.43921,-0.83571 0.48671,-1.72364c0.10684,-1.97436 0.08309,-2.09971 -0.73599,-3.96962c-0.17806,-0.39696 -0.2018,-0.79392 -0.18993,-2.61159c0.01187,-1.18043 0.07122,-2.30864 0.13058,-2.50713c0.05935,-0.19847 0.16619,-0.64768 0.23741,-0.9924c0.07122,-0.34472 0.23741,-0.98196 0.37987,-1.41025c0.13058,-0.42829 0.34426,-1.16999 0.46297,-1.65053c0.13058,-0.48053 0.46297,-1.27446 0.74786,-1.77588c0.28491,-0.50143 0.55793,-1.02375 0.60541,-1.16999c0.13058,-0.38651 1.04464,-1.54606 1.66192,-2.11017c0.75973,-0.6999 1.75689,-1.23267 2.71842,-1.46249c0.4511,-0.10446 0.84284,-0.19847 0.86657,-0.21937c0.10684,-0.09401 2.70655,-0.07312 3.03894,0.03133l0.00011,0.00003c0.21367,0.05222 0.83097,0.21937 1.38889,0.36562c0.55793,0.14625 1.15148,0.34472 1.34141,0.44919c0.18439,0.10818 0.4845,0.37142 0.79388,0.6808zM25.14988,13.5039c-0.33239,-0.10445 -2.9321,-0.12534 -3.03894,-0.03133c-0.02374,0.02089 -0.41547,0.1149 -0.86657,0.21937c-0.32218,0.07701 -0.64837,0.18803 -0.96828,0.32795l0.87423,0.87423c0.02194,0.02194 0.02499,0.12616 0.00618,0.26302c0.00812,0.00073 0.01626,0.00146 0.02442,0.00218c1.04384,0.08781 1.69067,0.29353 2.15548,0.75834l1.06066,1.06066c0.25226,0.25226 0.45091,0.58084 0.63031,1.00831c0.09046,0.01526 0.16819,0.05608 0.23239,0.12027l1.06066,1.06066c0,0 0,0 0,0c0.14262,0.14262 0.21843,0.40067 0.21843,0.75044c0,0.51602 -0.09472,0.70622 -0.54815,0.89972l0.88043,0.88043c0.01192,0.01192 0.02383,0.02443 0.03573,0.03753c0.43921,0.48053 0.22554,1.58785 -0.62916,3.25927c-0.07123,0.14625 -0.14245,0.585 -0.15432,0.9924c-0.02374,1.02375 -0.42736,1.61918 -1.55509,2.30864c-0.26115,0.16714 -0.75973,0.49097 -1.09212,0.72079c-0.33239,0.22982 -0.74786,0.50143 -0.91405,0.60589c-0.19583,0.11988 -0.26952,0.20214 -0.2824,0.39325c0.55608,0.15583 1.15745,0.28023 1.34663,0.29063c0.18993,0 0.45108,0.07313 0.5698,0.16714c0.18993,0.16713 0.26115,0.16713 0.87844,0.01044c0.368,-0.09403 0.71225,-0.14625 0.75973,-0.12536c0.00152,0.00101 0.00319,0.00242 0.005,0.00423l1.06066,1.06066c0.05466,0.05466 0.2385,0.47149 0.42234,0.95684c0.30865,0.81482 0.34426,1.06553 0.33239,2.12061c-0.01187,0.91928 -0.07122,1.35803 -0.26115,1.88035c-0.088,0.23232 -0.15274,0.44023 -0.19445,0.62438c0.45262,-0.1381 1.11479,-0.46205 2.17274,-1.02692c0.48671,-0.25071 1.28205,-0.60589 1.78063,-0.78347c0.68851,-0.24027 2.55225,-1.22223 3.44256,-1.81767c0.02376,-0.01044 -0.08309,-0.19847 -0.24928,-0.42829c-0.65289,-0.90884 -1.78063,-2.81008 -1.9943,-3.34284c-0.16619,-0.43875 -0.22554,-0.8775 -0.22554,-1.70275c0,-0.61634 -0.08309,-1.57741 -0.17806,-2.15195c-0.10684,-0.5641 -0.23743,-1.41025 -0.29678,-1.86989c-0.05935,-0.45964 -0.16619,-1.11777 -0.23741,-1.46249c-0.07122,-0.34474 -0.17806,-0.90884 -0.23741,-1.25357c-0.27302,-1.7341 -0.72412,-3.68758 -0.96153,-4.22034c-0.07122,-0.1358 -0.40361,-0.53276 -0.74786,-0.88793c-0.34426,-0.35518 -0.75973,-0.82526 -0.92592,-1.05508c-0.10268,-0.14457 -0.23581,-0.3102 -0.38399,-0.48111c-0.10668,-0.08851 -0.20131,-0.15857 -0.27663,-0.20276c-0.18993,-0.10446 -0.78349,-0.30294 -1.34141,-0.44919c-0.55793,-0.14625 -1.17522,-0.31339 -1.38889,-0.36562zM18.45802,15.21775c0.11321,-0.03647 0.19658,-0.05844 0.23,-0.05844c0.39174,0 0.83097,-0.31339 0.90218,-0.64768c0.01259,-0.05699 0.03009,-0.1147 0.05114,-0.17124c-0.40218,0.23143 -0.78169,0.50661 -1.11539,0.81403c-0.02227,0.02035 -0.04493,0.04148 -0.06793,0.06332zM15.04779,21.861c-0.14245,0.42829 -0.30865,1.06553 -0.37987,1.41025c-0.07122,0.34472 -0.17806,0.79392 -0.23741,0.9924c-0.05936,0.19849 -0.11871,1.3267 -0.13058,2.50713c-0.01187,1.81767 0.01187,2.21463 0.18993,2.61159c0.81908,1.86991 0.84284,1.99527 0.73599,3.96962c-0.04749,0.88793 -0.09497,1.06553 -0.48671,1.72364c-0.23741,0.39696 -0.65289,1.00285 -0.92592,1.34758c-0.27304,0.33428 -0.6529,0.88793 -0.85471,1.22222c-0.368,0.60589 -2.12489,2.94588 -2.84901,3.78159c-0.08431,0.10037 -0.18933,0.23174 -0.29603,0.37049h29.31616v-4.40044c-0.72735,-0.60697 -1.78377,-1.5498 -2.20187,-1.9679l-0.31203,-0.31203c-0.17379,-0.0051 -0.48383,0.13097 -0.71083,0.34499c-0.30865,0.30295 -0.34426,0.41786 -0.34426,1.00285c0,0.55367 -0.04748,0.72081 -0.32052,1.02375c-0.32052,0.37607 -1.37702,0.89839 -3.30011,1.61918c-0.52232,0.18803 -1.61444,0.64768 -2.43353,1.01329c-2.08928,0.92972 -2.32669,0.97151 -5.23506,0.97151c-2.35043,-0.01045 -3.56126,-0.13581 -3.95299,-0.41786c-0.07122,-0.05222 -0.64102,-0.22982 -1.25831,-0.4074c-1.68392,-0.46195 -2.57304,-0.78608 -2.98889,-1.20194l-1.06066,-1.06066c-0.30824,-0.30824 -0.35646,-0.66688 -0.27561,-1.16938c0.10683,-0.59545 0.35613,-0.8775 1.08025,-1.19089c0.32052,-0.13581 0.59355,-0.26117 0.61729,-0.27161c0.01189,-0.01044 0.13058,-0.38651 0.27304,-0.84615c0.34426,-1.15956 0.78347,-1.68187 1.9943,-2.36088c0.54606,-0.30294 1.16335,-0.67901 1.37702,-0.84615l0.39174,-0.28204l-0.16619,-0.55365c-0.14539,-0.48743 -0.19387,-0.81139 -0.14072,-1.03613c-0.13196,-0.10375 -0.27729,-0.23676 -0.44723,-0.40671l-1.06066,-1.06066c-0.1956,-0.1956 -0.42382,-0.44013 -0.70181,-0.74532c-1.04464,-1.1491 -1.15147,-1.33714 -1.48385,-2.46535c-0.43923,-1.53561 -0.47484,-1.70275 -0.48671,-2.55936c0,-0.92972 0.10683,-1.11775 0.59354,-1.03418c0.20182,0.04179 0.368,0 0.46297,-0.10446c0.02988,-0.03093 0.06054,-0.05752 0.09141,-0.07968l-0.72043,-0.72043c-0.028,-0.028 -0.05494,-0.06391 -0.08323,-0.10872c-0.16239,-0.27103 -0.18478,-0.93257 -0.1083,-1.65457c-0.27504,0.50276 -0.58231,1.2444 -0.70665,1.70193c-0.11871,0.48053 -0.33239,1.22223 -0.46297,1.65053zM32.21313,36.25608c-0.49858,0.17758 -1.29392,0.53276 -1.78063,0.78347c-2.11302,1.12821 -2.6472,1.29535 -3.08643,0.94017c-0.01329,-0.01072 -0.02594,-0.02208 -0.03794,-0.03408l-1.06066,-1.06066c-0.24518,-0.24518 -0.22014,-0.75754 0.08542,-1.5642c0.18993,-0.52232 0.24928,-0.96107 0.26115,-1.88035c0.01096,-0.97383 -0.01854,-1.26241 -0.26584,-1.94177c-0.06254,0.01393 -0.12737,0.02936 -0.19297,0.04612c-0.61729,0.15669 -0.68851,0.15669 -0.87844,-0.01044c-0.11871,-0.09401 -0.37987,-0.16714 -0.5698,-0.16714c-0.18993,-0.01044 -0.79536,-0.1358 -1.35328,-0.2925l-1.00903,-0.2925l-0.70443,-0.70443c-0.03592,0.02414 -0.07814,0.05001 -0.12657,0.07765c-0.34426,0.19847 -0.37987,0.55365 -0.13058,1.38936l0.16619,0.55365l-0.39174,0.28204c-0.21367,0.16714 -0.83097,0.54321 -1.37702,0.84615c-1.21083,0.67901 -1.65005,1.20133 -1.9943,2.36088c-0.14245,0.45964 -0.26115,0.83571 -0.27304,0.84615c-0.02374,0.01044 -0.29678,0.1358 -0.61729,0.27161c-0.72412,0.31339 -0.97342,0.59544 -1.08025,1.19089c-0.03547,0.22046 -0.0461,0.41323 -0.02083,0.5862c0.50665,0.22493 1.22584,0.45045 2.22467,0.72446c0.61729,0.17758 1.18709,0.35518 1.25831,0.4074c0.39174,0.28204 1.60257,0.4074 3.95299,0.41786c2.90837,0 3.14578,-0.04179 5.23506,-0.97151c0.8191,-0.36562 1.91121,-0.82526 2.43353,-1.01329c1.92308,-0.72079 2.97959,-1.24311 3.30011,-1.61918c0.27304,-0.30294 0.32052,-0.47008 0.32052,-1.02375c0,-0.1056 0.00116,-0.19588 0.00488,-0.27471c-0.86316,0.48231 -1.8355,0.96723 -2.29176,1.12646zM21.22841,29.241c-0.03561,-0.41786 0,-0.51186 0.27304,-0.67901c0.16619,-0.10446 0.58167,-0.37607 0.91405,-0.60589c0.33239,-0.22982 0.83097,-0.55365 1.09212,-0.72079c1.12773,-0.68946 1.53135,-1.2849 1.55509,-2.30864c0.01187,-0.4074 0.08309,-0.84615 0.15432,-0.9924c0.48469,-0.94785 0.76324,-1.71428 0.83347,-2.28787c-0.08942,0.04546 -0.18716,0.10303 -0.29513,0.17284c-0.67782,0.45216 -2.12084,0.57651 -2.44672,0.25063l-0.24971,-0.24971c-0.03417,-0.00148 -0.07304,0.0018 -0.11697,0.00952c-0.07876,0.01223 -0.12316,0.01491 -0.13251,0.00557l-0.23896,-0.23896c-0.10032,0.07194 -0.19081,0.15683 -0.26957,0.25428c-0.44878,0.5365 -0.75864,0.73815 -0.89943,0.59736l-1.06066,-1.06066c-0.05659,-0.05659 -0.08586,-0.16849 -0.08586,-0.33621c0,-0.47008 0.13058,-0.67901 0.64103,-1.01329c0.35613,-0.24026 0.43921,-0.26115 0.68851,-0.14625c0.37987,0.16714 2.55225,0.15669 3.07455,-0.03133c0.68851,-0.24026 0.8191,-0.39696 0.8191,-1.00285c0,-0.06087 -0.0023,-0.11896 -0.00684,-0.17414l-0.97988,-0.97988c-0.20188,-0.20188 -0.404,-0.48812 -0.52088,-0.76811c-0.05588,-0.1338 -0.11361,-0.25796 -0.17423,-0.37316c-0.39637,-0.18447 -0.89667,-0.2867 -1.55477,-0.34206c-0.58331,-0.05132 -1.09784,-0.14302 -1.16048,-0.20566l-0.43239,-0.43239c-0.0775,0.33065 -0.51206,0.63805 -0.90003,0.63805c-0.08309,0 -0.47484,0.1358 -0.86657,0.2925c-0.62916,0.26115 -0.74786,0.36562 -1.03277,0.86704c-0.3544,0.63792 -0.5995,1.91546 -0.61293,2.85044c0.5441,-0.1071 0.83028,-0.09246 1.15483,0.01674c0.18698,0.06582 0.3379,0.15914 0.43112,0.25236l1.06066,1.06066c0.11391,0.11391 0.14165,0.22765 0.04372,0.29085c-0.04748,0.03133 -0.10684,0.1358 -0.13058,0.21937c-0.05935,0.25071 -0.368,0.61633 -0.61729,0.73125c-0.11677,0.05361 -0.19228,0.05755 -0.22004,0.02978l-0.77414,-0.77414c-0.02906,0.02136 -0.05791,0.04665 -0.08606,0.07579c-0.09497,0.10446 -0.26115,0.14625 -0.46297,0.10446c-0.48671,-0.08357 -0.59354,0.10446 -0.59354,1.03418c0.01187,0.8566 0.04748,1.02375 0.48671,2.55936c0.33239,1.12821 0.43921,1.31624 1.48385,2.46535c0.02379,0.02611 0.04721,0.05178 0.07028,0.07701c0.38077,0.30425 0.64818,0.3666 1.06517,0.3666c0.31387,0 0.49332,0.02414 0.54624,0.07707l0.54283,0.54283zM20.01722,25.55308l-1.06066,-1.06066c-0.11878,-0.11878 -0.06237,-0.10333 0.14701,-0.02538c0.28491,0.1149 0.35613,0.10446 0.59354,-0.08357c0.14245,-0.1149 0.34426,-0.24026 0.43921,-0.27161c0.34808,-0.11231 0.90028,-0.07493 1.05807,0.08287l1.06066,1.06066c0.00365,0.00365 0.00709,0.00736 0.01031,0.01114l0.00002,0.00002c0.13132,0.13482 0.11019,0.36038 -0.01377,0.55303l0.64317,0.64317c0.02964,0.02964 0.04868,0.06955 0.05911,0.12004l0,0c0.04748,0.22982 -0.61729,0.39696 -1.54322,0.39696c-0.08941,0 -0.17052,-0.00224 -0.243,-0.00636l0.61313,0.61313c0.00639,0.00639 0.00974,0.01307 0.00974,0.02001c0,0.05222 -0.23741,0.10446 -0.52232,0.10446c-0.28626,0 -0.55041,-0.04859 -0.60074,-0.09891l-0.73683,-0.73683c-0.30473,-0.00108 -0.53895,-0.06357 -0.64487,-0.16713l-1.06066,-1.06066c-0.13058,-0.14625 -0.10684,-0.15669 0.32052,-0.09401c0.38105,0.06597 0.6109,0.13193 0.66012,0.18115l0.712,0.712c0.06127,-0.00341 0.13042,-0.0052 0.20671,-0.0052c0.06303,0 0.12392,0.0015 0.18122,0.00436l-0.62012,-0.62012c-0.05388,-0.05388 0.07873,-0.12016 0.42703,-0.16771c0.00443,-0.00058 0.00892,-0.00119 0.01347,-0.00182c-0.04557,-0.04189 -0.08176,-0.07596 -0.10885,-0.10304z" fill="url(#color-1)" stroke-width="1"></path><path d="M24.08934,12.44327c0.21368,0.05223 0.83096,0.21937 1.38889,0.36562c0.55793,0.14625 1.15147,0.34473 1.34141,0.44919c0.39174,0.22982 1.3058,1.15955 1.72128,1.74454c0.16619,0.22982 0.58167,0.69991 0.92593,1.05508c0.34426,0.35518 0.67664,0.75214 0.74787,0.88794c0.23742,0.53276 0.68851,2.48624 0.96154,4.22033c0.05935,0.34473 0.16619,0.90883 0.23742,1.25356c0.07123,0.34473 0.17806,1.00285 0.23742,1.46249c0.05935,0.45964 0.18993,1.3058 0.29677,1.8699c0.09497,0.57455 0.17806,1.53562 0.17806,2.15195c0,0.82526 0.05935,1.26401 0.22555,1.70276c0.21368,0.53276 1.34141,2.434 1.99431,3.34284c0.16619,0.22982 0.27303,0.41785 0.24929,0.4283c-0.89032,0.59544 -2.75404,1.5774 -3.44255,1.81767c-0.49858,0.17759 -1.29393,0.53276 -1.78063,0.78348c-2.11302,1.12821 -2.64721,1.29535 -3.08643,0.94017c-0.2849,-0.22982 -0.27303,-0.75214 0.04748,-1.59829c0.18993,-0.52232 0.24929,-0.96107 0.26116,-1.88035c0.01187,-1.05508 -0.02374,-1.3058 -0.33238,-2.12061c-0.18993,-0.50143 -0.37987,-0.92973 -0.42735,-0.96107c-0.04748,-0.02089 -0.39174,0.03134 -0.75974,0.12536c-0.61729,0.1567 -0.68851,0.1567 -0.87844,-0.01045c-0.11871,-0.09402 -0.37987,-0.16714 -0.5698,-0.16714c-0.18993,-0.01045 -0.79535,-0.1358 -1.35328,-0.2925l-1.00902,-0.2925l-0.03561,-0.48053c-0.03561,-0.41785 0,-0.51187 0.27303,-0.67901c0.16619,-0.10446 0.58167,-0.37607 0.91406,-0.60589c0.33238,-0.22982 0.83096,-0.55366 1.09212,-0.7208c1.12773,-0.68946 1.53134,-1.2849 1.55508,-2.30865c0.01187,-0.40741 0.0831,-0.84616 0.15432,-0.99241c0.8547,-1.67142 1.06838,-2.77873 0.62916,-3.25927c-0.2849,-0.31339 -0.5698,-0.2925 -1.15147,0.08357c-0.73599,0.49098 -2.37417,0.59544 -2.50475,0.1567c-0.03561,-0.1358 -0.13058,-0.17759 -0.30864,-0.14625c-0.2018,0.03134 -0.17806,0 0.0831,-0.1358c0.23742,-0.11491 0.52232,-0.1567 0.92593,-0.12536c0.68851,0.06268 0.74787,-0.06268 0.09497,-0.20893c-0.71225,-0.1567 -1.36515,0.02089 -1.74502,0.49098c-0.62916,0.75214 -0.98528,0.84616 -0.98528,0.26116c0,-0.47009 0.13058,-0.67901 0.64103,-1.0133c0.35613,-0.24027 0.43922,-0.26116 0.68851,-0.14625c0.37987,0.16714 2.55224,0.1567 3.07456,-0.03134c0.68851,-0.24027 0.81909,-0.39696 0.81909,-1.00285c0,-0.55366 -0.18993,-0.8775 -0.53419,-0.8775c-0.26116,0 -0.75974,-0.53276 -0.97341,-1.04464c-0.51045,-1.22223 -1.17522,-1.64008 -2.78966,-1.77588c-0.59354,-0.05223 -1.11586,-0.14625 -1.16335,-0.20893c-0.04748,-0.07312 -0.03561,-0.33428 0.02374,-0.59544c0.07123,-0.25071 0.0831,-0.49098 0.04748,-0.52232c-0.11871,-0.10446 -0.41548,0.30294 -0.49858,0.67901c-0.07123,0.33428 -0.51045,0.64767 -0.90219,0.64767c-0.0831,0 -0.47483,0.1358 -0.86657,0.2925c-0.62916,0.26116 -0.74787,0.36562 -1.03277,0.86705c-0.52232,0.94017 -0.80722,3.26971 -0.46296,3.84426c0.11871,0.18803 0.21368,0.21937 0.46296,0.16714c0.8547,-0.20893 1.19896,-0.21937 1.60257,-0.08357c0.41548,0.14625 0.6529,0.4283 0.47483,0.54321c-0.04748,0.03134 -0.10684,0.1358 -0.13058,0.21937c-0.05935,0.25071 -0.368,0.61634 -0.61729,0.73125c-0.27303,0.12536 -0.32051,-0.02089 -0.05935,-0.20893c0.26116,-0.18803 0.21368,-0.31339 -0.11871,-0.31339c-0.16619,0 -0.33238,-0.07312 -0.368,-0.1567c-0.09497,-0.20893 -0.33238,-0.19848 -0.53419,0.01045c-0.09497,0.10446 -0.26116,0.14625 -0.46296,0.10446c-0.48671,-0.08357 -0.59354,0.10446 -0.59354,1.03419c0.01187,0.8566 0.04748,1.02374 0.48671,2.55936c0.33238,1.12821 0.43922,1.31624 1.48386,2.46534c1.19896,1.31624 1.47199,1.50428 2.19611,1.50428c0.6529,0 0.72412,0.10446 0.2849,0.35518c-0.34426,0.19848 -0.37987,0.55366 -0.13058,1.38937l0.16619,0.55366l-0.39174,0.28205c-0.21368,0.16714 -0.83096,0.54321 -1.37702,0.84616c-1.21083,0.67901 -1.65005,1.20133 -1.99431,2.36088c-0.14245,0.45964 -0.26116,0.83571 -0.27303,0.84616c-0.02374,0.01045 -0.29677,0.1358 -0.61729,0.27161c-0.72412,0.31339 -0.97341,0.59544 -1.08025,1.19089c-0.18993,1.18044 0.33238,1.56696 3.26449,2.37133c0.61729,0.17759 1.18709,0.35518 1.25831,0.40741c0.39174,0.28205 1.60257,0.40741 3.953,0.41785c2.90836,0 3.14578,-0.04179 5.23506,-0.97151c0.81909,-0.36562 1.91121,-0.82526 2.43353,-1.0133c1.92308,-0.7208 2.97959,-1.24312 3.3001,-1.61919c0.27303,-0.30294 0.32051,-0.47009 0.32051,-1.02374c0,-0.585 0.03561,-0.69991 0.34426,-1.00285c0.33238,-0.31339 0.84283,-0.45964 0.84283,-0.24027c0,0.11491 2.45727,2.2982 3.0152,2.67427l0.42735,0.28205v4.67997h-31.11356l0.33238,-0.50143c0.17806,-0.27161 0.49858,-0.68946 0.70038,-0.92973c0.72412,-0.83571 2.48101,-3.1757 2.84901,-3.78159c0.2018,-0.33428 0.58167,-0.88794 0.8547,-1.22223c0.27303,-0.34473 0.68851,-0.95062 0.92593,-1.34758c0.39174,-0.65812 0.43922,-0.83571 0.48671,-1.72365c0.10684,-1.97436 0.0831,-2.09972 -0.73599,-3.96962c-0.17806,-0.39696 -0.2018,-0.79392 -0.18993,-2.61159c0.01187,-1.18044 0.07123,-2.30865 0.13058,-2.50713c0.05935,-0.19848 0.16619,-0.64767 0.23742,-0.99241c0.07123,-0.34473 0.23742,-0.98196 0.37987,-1.41026c0.13058,-0.4283 0.34426,-1.16999 0.46296,-1.65053c0.13058,-0.48053 0.46296,-1.27446 0.74787,-1.77588c0.2849,-0.50143 0.55793,-1.02374 0.60541,-1.16999c0.13058,-0.38652 1.04464,-1.54606 1.66192,-2.11017c0.75974,-0.69991 1.75689,-1.23267 2.71843,-1.46249c0.45109,-0.10446 0.84283,-0.19848 0.86657,-0.21937c0.10684,-0.09402 2.70656,-0.07312 3.03894,0.03134zM17.14488,20.49742c-0.368,0.18803 -0.22555,0.2925 0.22555,0.17759c0.23742,-0.05223 0.6529,-0.08357 0.92593,-0.05223c0.42735,0.05223 0.45109,0.04179 0.24929,-0.09402c-0.27303,-0.16714 -1.10399,-0.18803 -1.40076,-0.03134zM21.20471,24.20589c0.21368,0.21937 0.02374,0.67901 -0.35613,0.84616c-0.16619,0.07312 -0.48671,0.1358 -0.71225,0.1358c-0.34426,0 -0.52232,-0.08357 -0.89032,-0.4283c-0.42735,-0.38652 -0.45109,-0.40741 -0.14245,-0.2925c0.2849,0.11491 0.35613,0.10446 0.59354,-0.08357c0.14245,-0.11491 0.34426,-0.24027 0.43922,-0.27161c0.35613,-0.11491 0.92593,-0.07312 1.06838,0.09402zM21.89322,25.52213c0.04748,0.22982 -0.61729,0.39696 -1.54321,0.39696c-0.77161,0 -0.92593,-0.16714 -0.23742,-0.26116c0.23742,-0.03134 0.6529,-0.12536 0.91406,-0.19848c0.59354,-0.17759 0.81909,-0.16714 0.86657,0.06268zM18.54564,25.55347c0.72412,0.12536 0.90219,0.25071 0.33238,0.26116c-0.30864,0 -0.54606,-0.06268 -0.6529,-0.16714c-0.13058,-0.14625 -0.10684,-0.1567 0.32051,-0.09402zM20.12446,26.44141c0.33238,0 0.60541,0.04179 0.60541,0.10446c0,0.05223 -0.23742,0.10446 -0.52232,0.10446c-0.29677,0 -0.5698,-0.05223 -0.60541,-0.10446c-0.04748,-0.06268 0.15432,-0.10446 0.52232,-0.10446z" id="node1 1 1" fill="none" stroke-width="0"></path><g stroke-width="1"><g fill="#030303"><path d="M21.05039,12.41193c-0.02374,0.02089 -0.41548,0.11491 -0.86657,0.21937c-0.96154,0.22982 -1.95869,0.76258 -2.71843,1.46249c-0.61729,0.5641 -1.53134,1.72365 -1.66192,2.11017c-0.04748,0.14625 -0.32051,0.66857 -0.60541,1.16999c-0.2849,0.50143 -0.61729,1.29535 -0.74787,1.77588c-0.11871,0.48053 -0.33238,1.22223 -0.46296,1.65053c-0.14245,0.4283 -0.30864,1.06553 -0.37987,1.41026c-0.07123,0.34473 -0.17806,0.79392 -0.23742,0.99241c-0.05935,0.19848 -0.11871,1.32669 -0.13058,2.50713c-0.01187,1.81767 0.01187,2.21463 0.18993,2.61159c0.81909,1.8699 0.84283,1.99526 0.73599,3.96962c-0.04748,0.88794 -0.09497,1.06553 -0.48671,1.72365c-0.23742,0.39696 -0.6529,1.00285 -0.92593,1.34758c-0.27303,0.33428 -0.6529,0.88794 -0.8547,1.22223c-0.368,0.60589 -2.12489,2.94588 -2.84901,3.78159c-0.2018,0.24027 -0.52232,0.65812 -0.70038,0.92973l-0.33238,0.50143h15.56272h15.55085v-2.33999v-2.33999l-0.42735,-0.28205c-0.55793,-0.37607 -3.0152,-2.55936 -3.0152,-2.67427c0,-0.21937 -0.51045,-0.07312 -0.84283,0.24027c-0.30864,0.30294 -0.34426,0.41785 -0.34426,1.00285c0,0.55366 -0.04748,0.7208 -0.32051,1.02374c-0.32051,0.37607 -1.37702,0.89839 -3.3001,1.61919c-0.52232,0.18803 -1.61444,0.64767 -2.43353,1.0133c-2.08927,0.92973 -2.32669,0.97151 -5.23506,0.97151c-2.35043,-0.01045 -3.56126,-0.1358 -3.953,-0.41785c-0.07123,-0.05223 -0.64103,-0.22982 -1.25831,-0.40741c-2.93211,-0.80437 -3.45442,-1.19089 -3.26449,-2.37133c0.10684,-0.59544 0.35613,-0.8775 1.08025,-1.19089c0.32051,-0.1358 0.59354,-0.26116 0.61729,-0.27161c0.01187,-0.01045 0.13058,-0.38652 0.27303,-0.84616c0.34426,-1.15955 0.78348,-1.68187 1.99431,-2.36088c0.54606,-0.30294 1.16335,-0.67901 1.37702,-0.84616l0.39174,-0.28205l-0.16619,-0.55366c-0.24929,-0.83571 -0.21368,-1.19089 0.13058,-1.38937c0.43922,-0.25071 0.368,-0.35518 -0.2849,-0.35518c-0.72412,0 -0.99715,-0.18803 -2.19611,-1.50428c-1.04464,-1.1491 -1.15147,-1.33714 -1.48386,-2.46534c-0.43922,-1.53562 -0.47483,-1.70276 -0.48671,-2.55936c0,-0.92973 0.10684,-1.11776 0.59354,-1.03419c0.2018,0.04179 0.368,0 0.46296,-0.10446c0.2018,-0.20893 0.43922,-0.21937 0.53419,-0.01045c0.03561,0.08357 0.2018,0.1567 0.368,0.1567c0.33238,0 0.37987,0.12536 0.11871,0.31339c-0.26116,0.18803 -0.21368,0.33428 0.05935,0.20893c0.24929,-0.11491 0.55793,-0.48053 0.61729,-0.73125c0.02374,-0.08357 0.0831,-0.18803 0.13058,-0.21937c0.17806,-0.11491 -0.05935,-0.39696 -0.47483,-0.54321c-0.40361,-0.1358 -0.74787,-0.12536 -1.60257,0.08357c-0.24929,0.05223 -0.34426,0.02089 -0.46296,-0.16714c-0.34426,-0.57455 -0.05935,-2.90409 0.46296,-3.84426c0.2849,-0.50143 0.40361,-0.60589 1.03277,-0.86705c0.39174,-0.1567 0.78348,-0.2925 0.86657,-0.2925c0.39174,0 0.83096,-0.31339 0.90219,-0.64767c0.0831,-0.37607 0.37987,-0.78348 0.49858,-0.67901c0.03561,0.03134 0.02374,0.27161 -0.04748,0.52232c-0.05935,0.26116 -0.07123,0.52232 -0.02374,0.59544c0.04748,0.06268 0.5698,0.1567 1.16335,0.20893c1.61444,0.1358 2.27921,0.55366 2.78966,1.77588c0.21368,0.51187 0.71225,1.04464 0.97341,1.04464c0.34426,0 0.53419,0.32384 0.53419,0.8775c0,0.60589 -0.13058,0.76258 -0.81909,1.00285c-0.52232,0.18803 -2.69469,0.19848 -3.07456,0.03134c-0.24929,-0.11491 -0.33238,-0.09402 -0.68851,0.14625c-0.51045,0.33428 -0.64103,0.54321 -0.64103,1.0133c0,0.585 0.35613,0.49098 0.98528,-0.26116c0.37987,-0.47009 1.03277,-0.64767 1.74502,-0.49098c0.6529,0.14625 0.59354,0.27161 -0.09497,0.20893c-0.40361,-0.03134 -0.68851,0.01045 -0.92593,0.12536c-0.26116,0.1358 -0.2849,0.16714 -0.0831,0.1358c0.17806,-0.03134 0.27303,0.01045 0.30864,0.14625c0.13058,0.43875 1.76876,0.33428 2.50475,-0.1567c0.58167,-0.37607 0.86657,-0.39696 1.15147,-0.08357c0.43922,0.48053 0.22555,1.58785 -0.62916,3.25927c-0.07123,0.14625 -0.14245,0.585 -0.15432,0.99241c-0.02374,1.02374 -0.42735,1.61919 -1.55508,2.30865c-0.26116,0.16714 -0.75974,0.49098 -1.09212,0.7208c-0.33238,0.22982 -0.74787,0.50143 -0.91406,0.60589c-0.27303,0.16714 -0.30864,0.26116 -0.27303,0.67901l0.03561,0.48053l1.00902,0.2925c0.55793,0.1567 1.16335,0.28205 1.35328,0.2925c0.18993,0 0.45109,0.07312 0.5698,0.16714c0.18993,0.16714 0.26116,0.16714 0.87844,0.01045c0.368,-0.09402 0.71225,-0.14625 0.75974,-0.12536c0.04748,0.03134 0.23742,0.45964 0.42735,0.96107c0.30864,0.81482 0.34426,1.06553 0.33238,2.12061c-0.01187,0.91928 -0.07123,1.35803 -0.26116,1.88035c-0.32051,0.84616 -0.33238,1.36847 -0.04748,1.59829c0.43922,0.35518 0.97341,0.18803 3.08643,-0.94017c0.48671,-0.25071 1.28205,-0.60589 1.78063,-0.78348c0.68851,-0.24027 2.55224,-1.22223 3.44255,-1.81767c0.02374,-0.01045 -0.0831,-0.19848 -0.24929,-0.4283c-0.6529,-0.90883 -1.78063,-2.81007 -1.99431,-3.34284c-0.16619,-0.43875 -0.22555,-0.8775 -0.22555,-1.70276c0,-0.61634 -0.0831,-1.5774 -0.17806,-2.15195c-0.10684,-0.5641 -0.23742,-1.41026 -0.29677,-1.8699c-0.05935,-0.45964 -0.16619,-1.11776 -0.23742,-1.46249c-0.07123,-0.34473 -0.17806,-0.90883 -0.23742,-1.25356c-0.27303,-1.7341 -0.72412,-3.68757 -0.96154,-4.22033c-0.07123,-0.1358 -0.40361,-0.53276 -0.74787,-0.88794c-0.34426,-0.35518 -0.75974,-0.82526 -0.92593,-1.05508c-0.41548,-0.585 -1.32954,-1.51472 -1.72128,-1.74454c-0.18993,-0.10446 -0.78348,-0.30294 -1.34141,-0.44919c-0.55793,-0.14625 -1.17522,-0.31339 -1.38889,-0.36562c-0.33238,-0.10446 -2.93211,-0.12536 -3.03894,-0.03134zM18.54564,20.52876c0.2018,0.1358 0.17806,0.14625 -0.24929,0.09402c-0.27303,-0.03134 -0.68851,0 -0.92593,0.05223c-0.45109,0.11491 -0.59354,0.01045 -0.22555,-0.17759c0.29677,-0.1567 1.12773,-0.1358 1.40076,0.03134z" id="node1 1"></path><path d="M20.13634,24.11187c-0.09497,0.03134 -0.29677,0.1567 -0.43922,0.27161c-0.23742,0.18803 -0.30864,0.19848 -0.59354,0.08357c-0.30864,-0.11491 -0.2849,-0.09402 0.14245,0.2925c0.368,0.34473 0.54606,0.4283 0.89032,0.4283c0.22555,0 0.54606,-0.06268 0.71225,-0.1358c0.37987,-0.16714 0.5698,-0.62678 0.35613,-0.84616c-0.14245,-0.16714 -0.71225,-0.20893 -1.06838,-0.09402z" id="node2 1"></path><path d="M21.02665,25.45945c-0.26116,0.07312 -0.67664,0.16714 -0.91406,0.19848c-0.68851,0.09402 -0.53419,0.26116 0.23742,0.26116c0.92593,0 1.5907,-0.16714 1.54321,-0.39696c-0.04748,-0.22982 -0.27303,-0.24027 -0.86657,-0.06268z" id="node3 1"></path><path d="M18.22512,25.64748c0.10684,0.10446 0.34426,0.16714 0.6529,0.16714c0.5698,-0.01045 0.39174,-0.1358 -0.33238,-0.26116c-0.42735,-0.06268 -0.45109,-0.05223 -0.32051,0.09402z" id="node4 1"></path><path d="M19.60215,26.54587c0.03561,0.05223 0.30864,0.10446 0.60541,0.10446c0.2849,0 0.52232,-0.05223 0.52232,-0.10446c0,-0.06268 -0.27303,-0.10446 -0.60541,-0.10446c-0.368,0 -0.5698,0.04179 -0.52232,0.10446z" id="node5 1"></path></g><g fill="#a0a0a0" font-family="Roboto, sans-serif" font-weight="400" font-size="14" text-anchor="start"></g></g><path d="M2,24c0,-12.15026 9.84974,-22 22,-22c12.15026,0 22,9.84974 22,22c0,12.15026 -9.84974,22 -22,22c-12.15026,0 -22,-9.84974 -22,-22z" id="base 1 1 1" fill="none" stroke-width="1"></path><g stroke-width="1" font-family="Roboto, sans-serif" font-weight="400" font-size="14" text-anchor="start"><g fill="#030303"></g><g fill="#a0a0a0"></g></g><rect x="2" y="2" width="44" height="22" fill="none" stroke-width="1"></rect><path d="M2,24v-22h44v22z" fill="none" stroke-width="1"></path><path d="M2,24v-22h44v22z" fill="none" stroke-width="1"></path><path d="M2,24v-22h44v22z" fill="none" stroke-width="1"></path><path d="M2,24v-22h44v22z" fill="none" stroke-width="1"></path><path d="M33.625,14.375l9.375,0.625v8.75z" fill="url(#color-2)" stroke-width="1"></path><path d="M33,5l10,10h-8c-1,0 -2,-1 -2,-2z" fill="#21c7ff" stroke-width="1"></path></g></svg>