<svg version="1.1" xmlns="http://www.w3.org/2000/svg" xmlns:xlink="http://www.w3.org/1999/xlink" width="48" height="48"><defs><linearGradient x1="5.68633" y1="10.14702" x2="42.23542" y2="44.77841" gradientUnits="userSpaceOnUse" id="color-1"><stop offset="0" stop-color="#000000" stop-opacity="0.2"></stop><stop offset="1" stop-color="#000000" stop-opacity="0"></stop></linearGradient><filter id="dropshadow-base"><feColorMatrix type="matrix" values="0 0 0 0 0  0 0 0 0 0  0 0 0 0 0  0 0 0 .8 0"></feColorMatrix> <feOffset dx="0" dy="1"></feOffset> <feGaussianBlur stdDeviation="1"></feGaussianBlur> <feComposite in="SourceGraphic"></feComposite></filter><filter id="dropshadow-banner" x="-10%" y="-10%" width="120%" height="130%"><feColorMatrix type="matrix" values="0 0 0 0 0  0 0 0 0 0  0 0 0 0 0  0 0 0 .4 0"></feColorMatrix> <feOffset dx="0" dy="1"></feOffset> <feGaussianBlur stdDeviation="0.5"></feGaussianBlur> <feComposite in="SourceGraphic"></feComposite></filter></defs><g fill="none" fill-rule="nonzero" stroke="none" stroke-width="none" stroke-linecap="butt" stroke-linejoin="miter" stroke-miterlimit="10" stroke-dasharray="" stroke-dashoffset="0" font-family="none" font-weight="none" font-size="none" text-anchor="none" style="mix-blend-mode: normal"><path d="M7,43c-1.10457,0 -2,-0.89543 -2,-2v-34c0,-1.10457 0.89543,-2 2,-2h34c1.10457,0 2,0.89543 2,2v34c0,1.10457 -0.89543,2 -2,2z" id="base 1 5 1 1 1" fill="#03a9f4" stroke-width="1"></path><path d="M28.21862,11.97168l0.77605,0.77605c0.39999,0.39999 0.81343,0.86704 1.06629,1.22304c0.19108,0.26424 0.66878,0.80471 1.06459,1.21308c0.39581,0.40837 0.77797,0.86478 0.85986,1.02091c0.27297,0.61254 0.79162,2.85857 1.10553,4.85236c0.06824,0.39635 0.19108,1.04493 0.27297,1.4413c0.08188,0.39635 0.20473,1.15304 0.27297,1.68151c0.06824,0.52848 0.21838,1.50134 0.34122,2.14992c0.1092,0.66058 0.20473,1.76558 0.20473,2.47422c0,0.94884 0.06824,1.4533 0.25932,1.95775c0.24567,0.61254 1.5423,2.79851 2.29296,3.84346c0.19108,0.26424 0.31393,0.48043 0.28661,0.49243c-1.02365,0.68461 -3.16649,1.81362 -3.95811,2.08988c-0.57325,0.20417 -1.48769,0.61254 -2.04729,0.9008c-2.42945,1.29717 -3.04364,1.48934 -3.54865,1.08097c-0.01528,-0.01233 -0.02983,-0.02539 -0.04362,-0.03919l-0.77605,-0.77605c-0.2819,-0.2819 -0.25311,-0.87098 0.09821,-1.79845c0.21838,-0.60054 0.28661,-1.10499 0.30026,-2.16194c0.01365,-1.21308 -0.02729,-1.50134 -0.38216,-2.43818c-0.03775,-0.09966 -0.0755,-0.1968 -0.1124,-0.28951c-0.14082,0.02558 -0.30641,0.06126 -0.4764,0.10469c-0.70974,0.18015 -0.79162,0.18015 -1.01,-0.012c-0.13649,-0.10809 -0.43675,-0.19217 -0.65513,-0.19217c-0.21838,-0.012 -0.91447,-0.15613 -1.55595,-0.3363l-1.16014,-0.3363l-0.77605,-0.77605l-0.00404,-0.05448c-0.04713,0.03351 -0.10565,0.07009 -0.17536,0.10988c-0.39581,0.2282 -0.43675,0.63656 -0.15014,1.59743l0.19108,0.63656l-0.4504,0.32428c-0.24567,0.19217 -0.95541,0.62456 -1.58324,0.97287c-1.39216,0.78069 -1.89715,1.38123 -2.29296,2.71444c-0.16379,0.52848 -0.30026,0.96086 -0.31393,0.97287c-0.02729,0.012 -0.34122,0.15613 -0.70974,0.31228c-0.83256,0.36032 -1.1192,0.68461 -1.24202,1.36923c-0.05926,0.3683 -0.05822,0.66938 0.04213,0.93108c0.58245,0.32403 1.51189,0.62886 2.9352,1.01931c0.70974,0.20417 1.36487,0.40837 1.44675,0.46841c0.4504,0.32428 1.84256,0.46841 4.54498,0.48043c3.34392,0 3.61689,-0.04804 6.01905,-1.117c0.94176,-0.42037 2.19743,-0.94884 2.79797,-1.16504c2.21108,-0.82874 3.42581,-1.42928 3.79432,-1.86166c0.31393,-0.3483 0.36852,-0.54048 0.36852,-1.17706c0,-0.6726 0.04094,-0.80471 0.39581,-1.15304c0.33082,-0.31192 0.81506,-0.47983 0.9392,-0.35569l0.77605,0.77605c0.01927,0.01927 0.02986,0.04556 0.02986,0.07945c0,0.00067 0.00007,0.00139 0.00021,0.00218c0.88556,0.81468 2.26604,2.01044 2.69048,2.29654l0.49134,0.32428l0.77605,0.77605l0,3.17536c-0.22481,0.17682 -0.48847,0.30648 -0.77605,0.37407v-4.08622c-0.77018,-0.60645 -2.39922,-2.04807 -2.97506,-2.62392l-0.35875,-0.35875c-0.19982,-0.00587 -0.55629,0.15058 -0.81728,0.39665c-0.35487,0.34832 -0.39581,0.48043 -0.39581,1.15304c0,0.63658 -0.05459,0.82875 -0.36852,1.17706c-0.36852,0.43239 -1.58324,1.03293 -3.79432,1.86166c-0.60054,0.21619 -1.85621,0.74467 -2.79797,1.16504c-2.40216,1.06895 -2.67513,1.117 -6.01905,1.117c-2.70242,-0.01202 -4.09458,-0.15615 -4.54498,-0.48043c-0.08188,-0.06005 -0.73701,-0.26424 -1.44675,-0.46841c-1.9361,-0.53113 -2.95837,-0.90381 -3.4365,-1.38193c0,0 0,0 0,0l-0.77605,-0.77605c-0.35441,-0.35441 -0.40985,-0.76675 -0.31688,-1.34451c0.12283,-0.68462 0.40946,-1.00891 1.24202,-1.36923c0.36852,-0.15615 0.68244,-0.30028 0.70974,-0.31228c0.01367,-0.012 0.15014,-0.44439 0.31393,-0.97287c0.39581,-1.33321 0.9008,-1.93375 2.29296,-2.71444c0.62783,-0.3483 1.33757,-0.78069 1.58324,-0.97287l0.4504,-0.32428l-0.19108,-0.63656c-0.20172,-0.67628 -0.24119,-1.07887 -0.10887,-1.33758c-0.29174,-0.11358 -0.58357,-0.33776 -1.01059,-0.76478l-0.77605,-0.77605c-0.22489,-0.22489 -0.48728,-0.50605 -0.80691,-0.85694c-1.20108,-1.32119 -1.32391,-1.53738 -1.70607,-2.83455c-0.50501,-1.76558 -0.54595,-1.95775 -0.5596,-2.94264c0,-1.06895 0.12283,-1.28515 0.68242,-1.18906c0.23204,0.04804 0.42311,0 0.5323,-0.12011c0.03645,-0.03773 0.0739,-0.06983 0.11158,-0.09621c-0.02039,-0.01289 -0.03978,-0.0287 -0.05875,-0.04767l-0.77605,-0.77605c-0.03219,-0.03219 -0.06317,-0.07348 -0.09569,-0.125c-0.38178,-0.63719 -0.09055,-3.15168 0.4695,-4.29918c-0.14734,0.2185 -0.25349,0.40319 -0.29401,0.52313c-0.05459,0.16815 -0.3685,0.76869 -0.69607,1.34521c-0.32756,0.57652 -0.70972,1.48934 -0.85986,2.04184c-0.13649,0.5525 -0.38216,1.40527 -0.5323,1.89771c-0.16379,0.49243 -0.35487,1.2251 -0.43675,1.62145c-0.08188,0.39635 -0.20473,0.91282 -0.27297,1.14102c-0.06825,0.22821 -0.13649,1.52538 -0.15014,2.88259c-0.01365,2.08988 0.01365,2.54629 0.21838,3.0027c0.94174,2.14994 0.96906,2.29407 0.84621,4.5641c-0.05461,1.02091 -0.1092,1.2251 -0.5596,1.98177c-0.27297,0.45641 -0.75066,1.15304 -1.06459,1.54938c-0.31393,0.38435 -0.75068,1.02091 -0.9827,1.40525c-0.40495,0.66674 -2.27271,3.15985 -3.16216,4.21497h-0.76331c-0.19778,0 -0.38886,-0.02871 -0.56929,-0.08219c0.15611,-0.20741 0.31907,-0.41332 0.44305,-0.56093c0.83256,-0.96086 2.85256,-3.65128 3.27567,-4.34791c0.23202,-0.38435 0.66878,-1.02091 0.9827,-1.40525c0.31393,-0.39635 0.79162,-1.09297 1.06459,-1.54938c0.4504,-0.75667 0.50499,-0.96086 0.5596,-1.98177c0.12284,-2.27003 0.09553,-2.41416 -0.84621,-4.5641c-0.20473,-0.45641 -0.23202,-0.91282 -0.21838,-3.0027c0.01365,-1.35721 0.08188,-2.65438 0.15014,-2.88259c0.06824,-0.2282 0.19108,-0.74467 0.27297,-1.14102c0.08188,-0.39635 0.27297,-1.12902 0.43675,-1.62145c0.15014,-0.49243 0.39581,-1.34521 0.5323,-1.89771c0.15014,-0.5525 0.5323,-1.46532 0.85986,-2.04184c0.32757,-0.57652 0.64148,-1.17706 0.69607,-1.34521c0.15014,-0.44439 1.20108,-1.7776 1.9108,-2.42618c0.87351,-0.80471 2.02,-1.41727 3.12553,-1.68151c0.51866,-0.12011 0.96906,-0.2282 0.99635,-0.25222c0.12284,-0.10809 3.11188,-0.08407 3.49404,0.03602l0.00013,0.00004c0.24567,0.06005 0.95541,0.25222 1.59689,0.42037c0.64148,0.16815 1.32392,0.39635 1.5423,0.51646c0.212,0.12438 0.55706,0.42705 0.91277,0.78275zM24.94258,11.02812c-0.38216,-0.12009 -3.3712,-0.14411 -3.49404,-0.03602c-0.02729,0.02402 -0.4777,0.13211 -0.99635,0.25222c-1.10553,0.26424 -2.25202,0.8768 -3.12553,1.68151c-0.31153,0.2847 -0.68881,0.70131 -1.02679,1.11675c0.15463,-0.11024 0.35528,-0.2048 0.66024,-0.33138c0.4504,-0.18017 0.90082,-0.3363 0.99635,-0.3363c0.4504,0 0.95541,-0.36032 1.03729,-0.74467c0.09555,-0.43239 0.43675,-0.9008 0.57325,-0.78069c0.00034,0.0003 0.00068,0.00062 0.00101,0.00095l0.77605,0.77605c0.0397,0.0397 0.0256,0.31373 -0.0556,0.59959c-0.00666,0.0293 -0.0128,0.05859 -0.0184,0.08769c0.17041,0.02297 0.3582,0.04398 0.55263,0.06108c1.20016,0.10096 1.94387,0.33749 2.47828,0.8719l0.77605,0.77605c0.29213,0.29213 0.52172,0.67327 0.72915,1.16993c0.05523,0.13229 0.127,0.26579 0.20851,0.39328c0.04885,0.02065 0.09422,0.03175 0.13464,0.03175c0.14576,0 0.26746,0.0505 0.36305,0.14609c0,0 0,0 0,0c0,0 0,0 0,0l0.77605,0.77605c0.16398,0.16398 0.25114,0.46068 0.25114,0.86282c0,0.62852 -0.12222,0.83663 -0.72752,1.0742c0.12029,0.02485 0.22764,0.09062 0.33351,0.19648l0.77605,0.77605c0.01371,0.01371 0.0274,0.02809 0.04108,0.04315c0.50499,0.5525 0.25932,1.82564 -0.72338,3.74737c-0.0819,0.16815 -0.16379,0.6726 -0.17743,1.14102c-0.02729,1.17706 -0.49136,1.86166 -1.78797,2.65438c-0.30026,0.19217 -0.87351,0.5645 -1.25567,0.82874c-0.38216,0.26424 -0.85986,0.57652 -1.05094,0.69663c-0.31158,0.19074 -0.35424,0.29864 -0.31483,0.76997l0.42594,0.12347c0.64148,0.18017 1.33757,0.3243 1.55595,0.3363c0.21838,0 0.51864,0.08408 0.65513,0.19217c0.21838,0.19215 0.30026,0.19215 1.01,0.012c0.42311,-0.10811 0.81892,-0.16815 0.87351,-0.14413c0.00175,0.00116 0.00367,0.00278 0.00575,0.00486l0.77605,0.77605c0.06284,0.06284 0.27422,0.5421 0.48559,1.10013c0.35487,0.93684 0.39581,1.2251 0.38216,2.43818c-0.01365,1.05695 -0.08188,1.5614 -0.30026,2.16194c-0.19844,0.52386 -0.29398,0.93976 -0.28875,1.25334c0.50763,-0.00384 1.31932,-0.37173 3.00676,-1.27271c0.5596,-0.28826 1.47405,-0.69663 2.04729,-0.9008c0.79162,-0.27626 2.93446,-1.40527 3.95811,-2.08988c0.02731,-0.012 -0.09553,-0.2282 -0.28661,-0.49243c-0.75066,-1.04495 -2.04729,-3.23091 -2.29296,-3.84346c-0.19108,-0.50445 -0.25932,-1.00891 -0.25932,-1.95775c0,-0.70865 -0.09553,-1.81364 -0.20473,-2.47422c-0.12284,-0.64858 -0.27298,-1.62145 -0.34122,-2.14992c-0.06824,-0.52848 -0.19108,-1.28516 -0.27297,-1.68151c-0.08188,-0.39637 -0.20473,-1.04495 -0.27297,-1.4413c-0.31391,-1.99379 -0.83256,-4.23982 -1.10553,-4.85236c-0.08188,-0.15613 -0.46405,-0.61254 -0.85986,-1.02091c-0.39581,-0.40837 -0.87351,-0.94884 -1.06459,-1.21308c-0.16945,-0.23859 -0.41103,-0.52704 -0.67235,-0.81176c-0.20944,-0.18948 -0.39663,-0.33936 -0.53065,-0.41798c-0.21838,-0.12011 -0.90082,-0.3483 -1.5423,-0.51646c-0.64148,-0.16815 -1.35122,-0.36032 -1.59689,-0.42037zM20.87729,29.56541c-0.04094,-0.48043 0,-0.58852 0.31393,-0.78069c0.19108,-0.12011 0.66878,-0.43239 1.05094,-0.69663c0.38216,-0.26424 0.95541,-0.63656 1.25567,-0.82874c1.29661,-0.79271 1.76068,-1.47732 1.78797,-2.65438c0.01365,-0.46841 0.09553,-0.97287 0.17743,-1.14102c0.74465,-1.45619 1.0661,-2.53998 0.95842,-3.22c-0.20506,0.01706 -0.45229,0.13101 -0.78291,0.34476c-0.77932,0.51988 -2.43845,0.66284 -2.81313,0.28816l-0.28711,-0.28711c-0.03929,-0.00171 -0.08398,0.00206 -0.13448,0.01095c-0.09055,0.01406 -0.14161,0.01714 -0.15235,0.0064l-0.27474,-0.27474c-0.11535,0.08271 -0.21939,0.18031 -0.30994,0.29236c-0.51599,0.61685 -0.87226,0.84869 -1.03413,0.68682l-0.77605,-0.77605c-0.06506,-0.06506 -0.09872,-0.19373 -0.09872,-0.38656c0,-0.54048 0.15014,-0.78069 0.73703,-1.16504c0.40946,-0.27624 0.50499,-0.30026 0.79162,-0.16815c0.43675,0.19217 2.93446,0.18015 3.53498,-0.03602c0.79162,-0.27624 0.94176,-0.45641 0.94176,-1.15304c0,-0.10201 -0.00561,-0.19723 -0.01665,-0.28522c-0.10517,-0.05411 -0.22345,-0.14724 -0.34179,-0.26559l-0.77605,-0.77605c-0.23211,-0.23211 -0.4645,-0.56121 -0.59889,-0.88314c-0.11567,-0.27697 -0.23824,-0.51801 -0.3747,-0.72773c-0.49366,-0.30572 -1.14285,-0.46119 -2.05668,-0.53806c-0.67067,-0.05901 -1.26225,-0.16444 -1.33427,-0.23646l-0.49714,-0.49714c-0.0891,0.38017 -0.58874,0.7336 -1.03482,0.7336c-0.09553,0 -0.54595,0.15613 -0.99635,0.3363c-0.72338,0.30026 -0.85986,0.42037 -1.18743,0.99689c-0.48104,0.86586 -0.78693,2.75665 -0.68621,3.81438c0.9175,-0.21909 1.30308,-0.22566 1.75272,-0.07437c0.21499,0.07568 0.38851,0.18298 0.49568,0.29015l0.77605,0.77605c0.13097,0.13097 0.16286,0.26175 0.05027,0.33441c-0.05459,0.03602 -0.12284,0.15613 -0.15014,0.25222c-0.06824,0.28826 -0.42311,0.70863 -0.70974,0.84076c-0.13425,0.06164 -0.22107,0.06616 -0.253,0.03424l-0.77605,-0.77605c-0.03509,-0.03509 -0.00383,-0.11424 0.10372,-0.20997c-0.1016,0.01422 -0.21322,0.07596 -0.3167,0.18308c-0.1092,0.12011 -0.30026,0.16815 -0.5323,0.12011c-0.5596,-0.09609 -0.68242,0.12011 -0.68242,1.18906c0.01365,0.98489 0.05459,1.17706 0.5596,2.94264c0.38216,1.29717 0.50499,1.51336 1.70607,2.83455c0.13287,0.14586 0.25584,0.27967 0.37034,0.4024c0.52439,0.46228 0.84495,0.5511 1.37859,0.5511c0.36088,0 0.56719,0.02776 0.62805,0.08861c0,0 0,0 0,0l0.62412,0.62412zM17.65878,20.66806c0.07369,-0.07696 0.14231,-0.1619 0.19966,-0.24747c-0.14136,0.00484 -0.28525,0.01682 -0.41356,0.03357zM24.09411,20.14508c0.29133,-0.08232 0.56113,-0.194 0.76859,-0.3324c0.09717,-0.06282 0.18714,-0.11703 0.27095,-0.16268c-0.39535,0.05035 -0.93606,0.07616 -1.45719,0.07742zM22.94699,20.31135c0.12394,-0.00095 0.25404,-0.00838 0.3867,-0.02206c-0.14185,-0.00228 -0.26969,0.00507 -0.3867,0.02206zM19.37408,25.18887c-0.15803,-0.14293 -0.26806,-0.24237 -0.33281,-0.30712l-0.77605,-0.77605c-0.13657,-0.13657 -0.07171,-0.1188 0.16902,-0.02918c0.32757,0.13211 0.40946,0.12011 0.68242,-0.09609c0.16379,-0.13211 0.39581,-0.27624 0.50499,-0.31228c0.4002,-0.12912 1.0351,-0.08615 1.21652,0.09528l0.77605,0.77605c0.0042,0.0042 0.00815,0.00847 0.01185,0.01281l0.00002,0.00002c0.15098,0.155 0.1267,0.41435 -0.01583,0.63585l0.73949,0.73949c0.03408,0.03408 0.05597,0.07996 0.06796,0.13802l0,0c0.05459,0.26424 -0.70974,0.45641 -1.77432,0.45641c-0.1028,0 -0.19606,-0.00258 -0.2794,-0.00731l0.70495,0.70495c0.00735,0.00735 0.0112,0.01503 0.0112,0.02301c0,0.06005 -0.27297,0.12011 -0.60054,0.12011c-0.32913,0 -0.63284,-0.05586 -0.6907,-0.11372l-0.77605,-0.77605c-0.00213,-0.00213 -0.00392,-0.00426 -0.00537,-0.00638c-0.01994,-0.02633 -0.00164,-0.04945 0.05026,-0.06819c-0.03265,0.00159 -0.06822,0.00276 -0.10678,0.00346c-0.35487,0 -0.62783,-0.07206 -0.75068,-0.19217l-0.77605,-0.77605c-0.15014,-0.16815 -0.12284,-0.18015 0.36852,-0.10809c0.43812,0.07585 0.70238,0.15169 0.75897,0.20828l0.77605,0.77605c0.01721,0.01721 0.01521,0.03263 -0.00693,0.04574c0.08197,-0.00596 0.17824,-0.00914 0.28717,-0.00914c0.07247,0 0.14248,0.00173 0.20836,0.00502l-0.71299,-0.71299c-0.06195,-0.06195 0.09052,-0.13815 0.49098,-0.19283c0.02105,-0.00278 0.04333,-0.00599 0.06664,-0.00958c-0.08603,-0.06529 -0.17944,-0.14661 -0.28694,-0.24732zM20.39771,24.4442c-0.10918,0.03604 -0.3412,0.18017 -0.50499,0.31228c-0.08847,0.07007 -0.15687,0.11869 -0.22006,0.14791c0.25472,-0.00839 0.58907,-0.07657 0.76794,-0.15526c0.18483,-0.08132 0.33055,-0.22288 0.41854,-0.37823c-0.16291,0.00551 -0.32567,0.02951 -0.46142,0.07331z" fill="url(#color-1)" stroke-width="1"></path><path d="M24.16667,10.25211c0.24568,0.06005 0.9554,0.25223 1.59689,0.42038c0.64149,0.16815 1.32392,0.39636 1.54229,0.51646c0.4504,0.26424 1.50135,1.3332 1.97905,2.0058c0.19108,0.26424 0.66878,0.80472 1.06459,1.21309c0.39581,0.40837 0.77797,0.86478 0.85986,1.02092c0.27297,0.61255 0.79162,2.85857 1.10554,4.85236c0.06824,0.39636 0.19108,1.04494 0.27297,1.44129c0.08189,0.39636 0.20473,1.15304 0.27297,1.68151c0.06824,0.52847 0.21838,1.50135 0.34122,2.14993c0.10919,0.66059 0.20473,1.76559 0.20473,2.47422c0,0.94885 0.06824,1.45331 0.25932,1.95776c0.24568,0.61255 1.54229,2.79851 2.29297,3.84345c0.19108,0.26424 0.31392,0.48043 0.28662,0.49244c-1.02365,0.68461 -3.16648,1.81363 -3.9581,2.08988c-0.57324,0.20418 -1.4877,0.61255 -2.04729,0.90081c-2.42945,1.29717 -3.04364,1.48934 -3.54864,1.08097c-0.32757,-0.26424 -0.31392,-0.86478 0.05459,-1.83765c0.21838,-0.60054 0.28662,-1.10499 0.30027,-2.16194c0.01365,-1.21309 -0.0273,-1.50135 -0.38216,-2.43819c-0.21838,-0.57652 -0.43676,-1.06896 -0.49135,-1.10499c-0.05459,-0.02402 -0.4504,0.03603 -0.87351,0.14413c-0.70973,0.18016 -0.79162,0.18016 -1.01,-0.01201c-0.13649,-0.1081 -0.43676,-0.19217 -0.65513,-0.19217c-0.21838,-0.01201 -0.91446,-0.15614 -1.55594,-0.3363l-1.16013,-0.3363l-0.04095,-0.5525c-0.04095,-0.48043 0,-0.58853 0.31392,-0.7807c0.19108,-0.12011 0.66878,-0.43239 1.05094,-0.69663c0.38216,-0.26424 0.9554,-0.63657 1.25567,-0.82874c1.29662,-0.79271 1.76067,-1.47733 1.78797,-2.65438c0.01365,-0.46842 0.09554,-0.97287 0.17743,-1.14102c0.9827,-1.92173 1.22838,-3.19487 0.72338,-3.74737c-0.32757,-0.36032 -0.65513,-0.3363 -1.32392,0.09609c-0.84621,0.56451 -2.72972,0.68461 -2.87986,0.18016c-0.04095,-0.15614 -0.15013,-0.20418 -0.35486,-0.16815c-0.23203,0.03603 -0.20473,0 0.09554,-0.15614c0.27297,-0.13212 0.60054,-0.18016 1.06459,-0.14413c0.79162,0.07206 0.85986,-0.07206 0.10919,-0.24022c-0.81892,-0.18016 -1.56959,0.02402 -2.00635,0.56451c-0.72338,0.86478 -1.13284,0.97287 -1.13284,0.30027c0,-0.54049 0.15013,-0.7807 0.73703,-1.16505c0.40946,-0.27625 0.505,-0.30027 0.79162,-0.16815c0.43676,0.19217 2.93445,0.18016 3.53499,-0.03603c0.79162,-0.27625 0.94175,-0.45641 0.94175,-1.15304c0,-0.63657 -0.21838,-1.00891 -0.61419,-1.00891c-0.30027,0 -0.87351,-0.61255 -1.11919,-1.20108c-0.58689,-1.40526 -1.35121,-1.88569 -3.20743,-2.04183c-0.68243,-0.06005 -1.28297,-0.16815 -1.33757,-0.24022c-0.05459,-0.08408 -0.04095,-0.38435 0.0273,-0.68461c0.08189,-0.28826 0.09554,-0.56451 0.05459,-0.60054c-0.13649,-0.12011 -0.4777,0.34831 -0.57324,0.7807c-0.08189,0.38435 -0.58689,0.74467 -1.0373,0.74467c-0.09554,0 -0.54594,0.15614 -0.99635,0.3363c-0.72338,0.30027 -0.85986,0.42038 -1.18743,0.9969c-0.60054,1.08097 -0.92811,3.75938 -0.5323,4.41997c0.13649,0.21619 0.24568,0.25223 0.5323,0.19217c0.9827,-0.24022 1.37851,-0.25223 1.84256,-0.09609c0.4777,0.16815 0.75067,0.49244 0.54594,0.62456c-0.05459,0.03603 -0.12284,0.15614 -0.15013,0.25223c-0.06824,0.28826 -0.42311,0.70864 -0.70973,0.84076c-0.31392,0.14413 -0.36851,-0.02402 -0.06824,-0.24022c0.30027,-0.21619 0.24568,-0.36032 -0.13649,-0.36032c-0.19108,0 -0.38216,-0.08408 -0.42311,-0.18016c-0.10919,-0.24022 -0.38216,-0.2282 -0.61419,0.01201c-0.10919,0.12011 -0.30027,0.16815 -0.5323,0.12011c-0.55959,-0.09609 -0.68243,0.12011 -0.68243,1.18907c0.01365,0.98488 0.05459,1.17706 0.55959,2.94264c0.38216,1.29717 0.505,1.51336 1.70608,2.83455c1.37851,1.51336 1.69243,1.72955 2.525,1.72955c0.75067,0 0.83257,0.12011 0.32757,0.40837c-0.39581,0.2282 -0.43676,0.63657 -0.15013,1.59743l0.19108,0.63657l-0.4504,0.32429c-0.24568,0.19217 -0.9554,0.62456 -1.58324,0.97287c-1.39216,0.7807 -1.89716,1.38124 -2.29297,2.71444c-0.16378,0.52847 -0.30027,0.96086 -0.31392,0.97287c-0.0273,0.01201 -0.34122,0.15614 -0.70973,0.31228c-0.83257,0.36032 -1.11919,0.68461 -1.24202,1.36923c-0.21838,1.35722 0.38216,1.80162 3.75337,2.72645c0.70973,0.20418 1.36486,0.40837 1.44675,0.46842c0.4504,0.32429 1.84256,0.46842 4.54499,0.48043c3.34391,0 3.61688,-0.04804 6.01904,-1.117c0.94175,-0.42038 2.19743,-0.94885 2.79797,-1.16505c2.21108,-0.82874 3.4258,-1.42928 3.79432,-1.86167c0.31392,-0.34831 0.36851,-0.54049 0.36851,-1.17706c0,-0.6726 0.04095,-0.80472 0.39581,-1.15304c0.38216,-0.36032 0.96905,-0.52847 0.96905,-0.27625c0,0.13212 2.82526,2.64237 3.46675,3.07476l0.49135,0.32429v5.38083h-35.77304l0.38216,-0.57652c0.20473,-0.31228 0.57324,-0.79271 0.80527,-1.06896c0.83257,-0.96086 2.85256,-3.65128 3.27567,-4.34791c0.23203,-0.38435 0.66878,-1.02092 0.9827,-1.40526c0.31392,-0.39636 0.79162,-1.09298 1.06459,-1.54939c0.4504,-0.75668 0.505,-0.96086 0.55959,-1.98178c0.12284,-2.27004 0.09554,-2.41417 -0.84621,-4.5641c-0.20473,-0.45641 -0.23203,-0.91282 -0.21838,-3.0027c0.01365,-1.35722 0.08189,-2.65438 0.15013,-2.88259c0.06824,-0.2282 0.19108,-0.74467 0.27297,-1.14102c0.08189,-0.39636 0.27297,-1.12901 0.43676,-1.62146c0.15013,-0.49244 0.39581,-1.34521 0.5323,-1.8977c0.15013,-0.5525 0.5323,-1.46532 0.85986,-2.04183c0.32757,-0.57652 0.64149,-1.17706 0.69608,-1.34521c0.15013,-0.4444 1.20108,-1.7776 1.91081,-2.42618c0.87351,-0.80472 2.02,-1.41727 3.12553,-1.68151c0.51865,-0.12011 0.96905,-0.2282 0.99635,-0.25223c0.12284,-0.1081 3.11189,-0.08408 3.49405,0.03603zM16.18222,19.51243c-0.42311,0.21619 -0.25932,0.3363 0.25932,0.20418c0.27297,-0.06005 0.75067,-0.09609 1.06459,-0.06005c0.49135,0.06005 0.51865,0.04804 0.28662,-0.1081c-0.31392,-0.19217 -1.26932,-0.21619 -1.61054,-0.03603zM20.85005,23.77626c0.24568,0.25223 0.0273,0.7807 -0.40946,0.97287c-0.19108,0.08408 -0.55959,0.15614 -0.81892,0.15614c-0.39581,0 -0.60054,-0.09609 -1.02365,-0.49244c-0.49135,-0.4444 -0.51865,-0.46842 -0.16378,-0.3363c0.32757,0.13212 0.40946,0.12011 0.68243,-0.09609c0.16378,-0.13212 0.39581,-0.27625 0.505,-0.31228c0.40946,-0.13212 1.06459,-0.08408 1.22838,0.1081zM21.64167,25.28961c0.05459,0.26424 -0.70973,0.45641 -1.77432,0.45641c-0.88716,0 -1.06459,-0.19217 -0.27297,-0.30027c0.27297,-0.03603 0.75067,-0.14413 1.05094,-0.2282c0.68243,-0.20418 0.94175,-0.19217 0.99635,0.07206zM17.79276,25.32565c0.83257,0.14413 1.0373,0.28826 0.38216,0.30027c-0.35486,0 -0.62784,-0.07206 -0.75067,-0.19217c-0.15013,-0.16815 -0.12284,-0.18016 0.36851,-0.1081zM19.60803,26.34656c0.38216,0 0.69608,0.04804 0.69608,0.12011c0,0.06005 -0.27297,0.12011 -0.60054,0.12011c-0.34122,0 -0.65513,-0.06005 -0.69608,-0.12011c-0.05459,-0.07206 0.17743,-0.12011 0.60054,-0.12011z" id="node1 1 1" fill="none" stroke-width="0"></path><g stroke-width="1"><g fill="#030303"><path d="M20.67262,10.21608c-0.0273,0.02402 -0.4777,0.13212 -0.99635,0.25223c-1.10554,0.26424 -2.25202,0.87679 -3.12553,1.68151c-0.70973,0.64858 -1.76067,1.98178 -1.91081,2.42618c-0.05459,0.16815 -0.36851,0.76869 -0.69608,1.34521c-0.32757,0.57652 -0.70973,1.48934 -0.85986,2.04183c-0.13649,0.5525 -0.38216,1.40526 -0.5323,1.8977c-0.16378,0.49244 -0.35486,1.2251 -0.43676,1.62146c-0.08189,0.39636 -0.20473,0.91282 -0.27297,1.14102c-0.06824,0.2282 -0.13649,1.52537 -0.15013,2.88259c-0.01365,2.08988 0.01365,2.54629 0.21838,3.0027c0.94175,2.14993 0.96905,2.29406 0.84621,4.5641c-0.05459,1.02092 -0.10919,1.2251 -0.55959,1.98178c-0.27297,0.45641 -0.75067,1.15304 -1.06459,1.54939c-0.31392,0.38435 -0.75067,1.02092 -0.9827,1.40526c-0.42311,0.69663 -2.4431,3.38704 -3.27567,4.34791c-0.23203,0.27625 -0.60054,0.75668 -0.80527,1.06896l-0.38216,0.57652h17.89334h17.8797v-2.69042v-2.69042l-0.49135,-0.32429c-0.64149,-0.43239 -3.46675,-2.94264 -3.46675,-3.07476c0,-0.25223 -0.58689,-0.08408 -0.96905,0.27625c-0.35486,0.34831 -0.39581,0.48043 -0.39581,1.15304c0,0.63657 -0.05459,0.82874 -0.36851,1.17706c-0.36851,0.43239 -1.58324,1.03293 -3.79432,1.86167c-0.60054,0.21619 -1.85621,0.74467 -2.79797,1.16505c-2.40216,1.06896 -2.67513,1.117 -6.01904,1.117c-2.70243,-0.01201 -4.09459,-0.15614 -4.54499,-0.48043c-0.08189,-0.06005 -0.73703,-0.26424 -1.44675,-0.46842c-3.37121,-0.92483 -3.97175,-1.36923 -3.75337,-2.72645c0.12284,-0.68461 0.40946,-1.00891 1.24202,-1.36923c0.36851,-0.15614 0.68243,-0.30027 0.70973,-0.31228c0.01365,-0.01201 0.15013,-0.4444 0.31392,-0.97287c0.39581,-1.3332 0.90081,-1.93374 2.29297,-2.71444c0.62784,-0.34831 1.33757,-0.7807 1.58324,-0.97287l0.4504,-0.32429l-0.19108,-0.63657c-0.28662,-0.96086 -0.24568,-1.36923 0.15013,-1.59743c0.505,-0.28826 0.42311,-0.40837 -0.32757,-0.40837c-0.83257,0 -1.14648,-0.21619 -2.525,-1.72955c-1.20108,-1.32119 -1.32392,-1.53738 -1.70608,-2.83455c-0.505,-1.76559 -0.54594,-1.95776 -0.55959,-2.94264c0,-1.06896 0.12284,-1.28515 0.68243,-1.18907c0.23203,0.04804 0.42311,0 0.5323,-0.12011c0.23203,-0.24022 0.505,-0.25223 0.61419,-0.01201c0.04095,0.09609 0.23203,0.18016 0.42311,0.18016c0.38216,0 0.43676,0.14413 0.13649,0.36032c-0.30027,0.21619 -0.24568,0.38435 0.06824,0.24022c0.28662,-0.13212 0.64149,-0.5525 0.70973,-0.84076c0.0273,-0.09609 0.09554,-0.21619 0.15013,-0.25223c0.20473,-0.13212 -0.06824,-0.45641 -0.54594,-0.62456c-0.46405,-0.15614 -0.85986,-0.14413 -1.84256,0.09609c-0.28662,0.06005 -0.39581,0.02402 -0.5323,-0.19217c-0.39581,-0.66059 -0.06824,-3.339 0.5323,-4.41997c0.32757,-0.57652 0.46405,-0.69663 1.18743,-0.9969c0.4504,-0.18016 0.90081,-0.3363 0.99635,-0.3363c0.4504,0 0.9554,-0.36032 1.0373,-0.74467c0.09554,-0.43239 0.43676,-0.90081 0.57324,-0.7807c0.04095,0.03603 0.0273,0.31228 -0.05459,0.60054c-0.06824,0.30027 -0.08189,0.60054 -0.0273,0.68461c0.05459,0.07206 0.65513,0.18016 1.33757,0.24022c1.85621,0.15614 2.62054,0.63657 3.20743,2.04183c0.24568,0.58853 0.81892,1.20108 1.11919,1.20108c0.39581,0 0.61419,0.37233 0.61419,1.00891c0,0.69663 -0.15013,0.87679 -0.94175,1.15304c-0.60054,0.21619 -3.09824,0.2282 -3.53499,0.03603c-0.28662,-0.13212 -0.38216,-0.1081 -0.79162,0.16815c-0.58689,0.38435 -0.73703,0.62456 -0.73703,1.16505c0,0.6726 0.40946,0.56451 1.13284,-0.30027c0.43676,-0.54049 1.18743,-0.74467 2.00635,-0.56451c0.75067,0.16815 0.68243,0.31228 -0.10919,0.24022c-0.46405,-0.03603 -0.79162,0.01201 -1.06459,0.14413c-0.30027,0.15614 -0.32757,0.19217 -0.09554,0.15614c0.20473,-0.03603 0.31392,0.01201 0.35486,0.16815c0.15013,0.50445 2.03364,0.38435 2.87986,-0.18016c0.66878,-0.43239 0.99635,-0.45641 1.32392,-0.09609c0.505,0.5525 0.25932,1.82564 -0.72338,3.74737c-0.08189,0.16815 -0.16378,0.6726 -0.17743,1.14102c-0.0273,1.17706 -0.49135,1.86167 -1.78797,2.65438c-0.30027,0.19217 -0.87351,0.56451 -1.25567,0.82874c-0.38216,0.26424 -0.85986,0.57652 -1.05094,0.69663c-0.31392,0.19217 -0.35486,0.30027 -0.31392,0.7807l0.04095,0.5525l1.16013,0.3363c0.64149,0.18016 1.33757,0.32429 1.55594,0.3363c0.21838,0 0.51865,0.08408 0.65513,0.19217c0.21838,0.19217 0.30027,0.19217 1.01,0.01201c0.42311,-0.1081 0.81892,-0.16815 0.87351,-0.14413c0.05459,0.03603 0.27297,0.52847 0.49135,1.10499c0.35486,0.93684 0.39581,1.2251 0.38216,2.43819c-0.01365,1.05695 -0.08189,1.5614 -0.30027,2.16194c-0.36851,0.97287 -0.38216,1.57341 -0.05459,1.83765c0.505,0.40837 1.11919,0.21619 3.54864,-1.08097c0.55959,-0.28826 1.47405,-0.69663 2.04729,-0.90081c0.79162,-0.27625 2.93445,-1.40526 3.9581,-2.08988c0.0273,-0.01201 -0.09554,-0.2282 -0.28662,-0.49244c-0.75067,-1.04494 -2.04729,-3.2309 -2.29297,-3.84345c-0.19108,-0.50445 -0.25932,-1.00891 -0.25932,-1.95776c0,-0.70864 -0.09554,-1.81363 -0.20473,-2.47422c-0.12284,-0.64858 -0.27297,-1.62146 -0.34122,-2.14993c-0.06824,-0.52847 -0.19108,-1.28515 -0.27297,-1.68151c-0.08189,-0.39636 -0.20473,-1.04494 -0.27297,-1.44129c-0.31392,-1.99379 -0.83257,-4.23981 -1.10554,-4.85236c-0.08189,-0.15614 -0.46405,-0.61255 -0.85986,-1.02092c-0.39581,-0.40837 -0.87351,-0.94885 -1.06459,-1.21309c-0.4777,-0.6726 -1.52865,-1.74156 -1.97905,-2.0058c-0.21838,-0.12011 -0.90081,-0.34831 -1.54229,-0.51646c-0.64149,-0.16815 -1.35121,-0.36032 -1.59689,-0.42038c-0.38216,-0.12011 -3.37121,-0.14413 -3.49405,-0.03603zM17.79276,19.54846c0.23203,0.15614 0.20473,0.16815 -0.28662,0.1081c-0.31392,-0.03603 -0.79162,0 -1.06459,0.06005c-0.51865,0.13212 -0.68243,0.01201 -0.25932,-0.20418c0.34122,-0.18016 1.29662,-0.15614 1.61054,0.03603z" id="node1 1"></path><path d="M19.62168,23.66816c-0.10919,0.03603 -0.34122,0.18016 -0.505,0.31228c-0.27297,0.21619 -0.35486,0.2282 -0.68243,0.09609c-0.35486,-0.13212 -0.32757,-0.1081 0.16378,0.3363c0.42311,0.39636 0.62784,0.49244 1.02365,0.49244c0.25932,0 0.62784,-0.07206 0.81892,-0.15614c0.43676,-0.19217 0.65513,-0.72065 0.40946,-0.97287c-0.16378,-0.19217 -0.81892,-0.24022 -1.22838,-0.1081z" id="node2 1"></path><path d="M20.64532,25.21755c-0.30027,0.08408 -0.77797,0.19217 -1.05094,0.2282c-0.79162,0.1081 -0.61419,0.30027 0.27297,0.30027c1.06459,0 1.82892,-0.19217 1.77432,-0.45641c-0.05459,-0.26424 -0.31392,-0.27625 -0.99635,-0.07206z" id="node3 1"></path><path d="M17.42425,25.43374c0.12284,0.12011 0.39581,0.19217 0.75067,0.19217c0.65513,-0.01201 0.4504,-0.15614 -0.38216,-0.30027c-0.49135,-0.07206 -0.51865,-0.06005 -0.36851,0.1081z" id="node4 1"></path><path d="M19.00749,26.46667c0.04095,0.06005 0.35486,0.12011 0.69608,0.12011c0.32757,0 0.60054,-0.06005 0.60054,-0.12011c0,-0.07206 -0.31392,-0.12011 -0.69608,-0.12011c-0.42311,0 -0.65513,0.04804 -0.60054,0.12011z" id="node5 1"></path></g><g fill="#a0a0a0" font-family="Roboto, sans-serif" font-weight="400" font-size="14" text-anchor="start"></g></g><path d="M2,24c0,-12.15026 9.84974,-22 22,-22c12.15026,0 22,9.84974 22,22c0,12.15026 -9.84974,22 -22,22c-12.15026,0 -22,-9.84974 -22,-22z" id="base 1 1 1" fill="none" stroke-width="1"></path><g stroke-width="1" font-family="Roboto, sans-serif" font-weight="400" font-size="14" text-anchor="start"><g fill="#030303"></g><g fill="#a0a0a0"></g></g><rect x="2" y="2" width="44" height="22" fill="none" stroke-width="1"></rect><path d="M2,24v-22h44v22z" fill="none" stroke-width="1"></path><path d="M2,24v-22h44v22z" fill="none" stroke-width="1"></path><path d="M2,24v-22h44v22z" fill="none" stroke-width="1"></path><path d="M5,7c0,-1.10457 0.89543,-2 2,-2h34c1.10457,0 2,0.89543 2,2v17h-38z" id="base 1 2 1" fill-opacity="0.1" fill="#000000" stroke-width="1"></path><path d="M2,24v-22h44v22z" fill="none" stroke-width="1"></path></g></svg>